<svg viewBox="0 0 12 12" fill="none" xmlns="http://www.w3.org/2000/svg">
  <path
    d="M5.58906 9.7845C5.63493 9.85112 5.69631 9.90559 5.76791 9.94322C5.8395 9.98086 5.91918 10.0005 6.00006 10.0005C6.08095 10.0005 6.16062 9.98086 6.23222 9.94322C6.30381 9.90559 6.36519 9.85112 6.41106 9.7845L10.9111 3.2845C10.9631 3.20953 10.9937 3.12172 10.9994 3.0306C11.0051 2.93949 10.9857 2.84856 10.9433 2.7677C10.9009 2.68683 10.8372 2.61912 10.7591 2.57193C10.6809 2.52473 10.5914 2.49986 10.5001 2.5H1.50006C1.40898 2.50038 1.31973 2.52557 1.2419 2.57288C1.16407 2.62019 1.10061 2.68782 1.05834 2.7685C1.01608 2.84917 0.996603 2.93985 1.00201 3.03077C1.00743 3.12168 1.03752 3.20941 1.08906 3.2845L5.58906 9.7845Z" />
</svg>