<svg viewBox="0 0 24 24" fill="none" xmlns="http://www.w3.org/2000/svg">
<path d="M21.6458 15.2637C21.6958 15.3491 21.7284 15.4434 21.7418 15.5414C21.7552 15.6394 21.7491 15.7391 21.7238 15.8347C21.6985 15.9304 21.6546 16.02 21.5945 16.0986C21.5344 16.1772 21.4594 16.2431 21.3737 16.2925C21.2881 16.342 21.1935 16.374 21.0954 16.3868C20.9973 16.3995 20.8977 16.3927 20.8022 16.3668C20.7068 16.3409 20.6174 16.2964 20.5392 16.2358C20.4611 16.1752 20.3956 16.0997 20.3468 16.0137L18.6234 13.0288C17.6081 13.7088 16.4915 14.2239 15.3152 14.5549L15.8602 17.6453C15.8947 17.8412 15.8499 18.0428 15.7358 18.2058C15.6217 18.3687 15.4476 18.4797 15.2517 18.5142C15.2084 18.5218 15.1645 18.5256 15.1206 18.5257C14.9444 18.5254 14.774 18.4632 14.6391 18.3499C14.5042 18.2366 14.4135 18.0794 14.3828 17.906L13.8468 14.8659C12.6193 15.0452 11.3722 15.0447 10.1449 14.8645L9.60881 17.9046C9.57821 18.0781 9.48752 18.2353 9.35264 18.3486C9.21776 18.462 9.04728 18.5243 8.87109 18.5245C8.82716 18.5245 8.78331 18.5207 8.74003 18.5131C8.54413 18.4786 8.36998 18.3676 8.25588 18.2047C8.14178 18.0417 8.09707 17.8401 8.13159 17.6442L8.67666 14.5525C7.50171 14.221 6.38654 13.7058 5.37244 13.0261L3.639 16.0285C3.59043 16.1151 3.52515 16.1912 3.44695 16.2523C3.36876 16.3135 3.2792 16.3585 3.18347 16.3848C3.08774 16.4111 2.98775 16.4181 2.88929 16.4054C2.79083 16.3928 2.69586 16.3607 2.60989 16.3111C2.52392 16.2614 2.44867 16.1952 2.38848 16.1163C2.32829 16.0373 2.28438 15.9472 2.25928 15.8512C2.23419 15.7551 2.22841 15.655 2.24228 15.5567C2.25615 15.4585 2.2894 15.3639 2.34009 15.2785L4.16794 12.1126C3.53041 11.5639 2.94418 10.9583 2.4165 10.3033C2.35374 10.2268 2.30675 10.1386 2.27823 10.0439C2.24971 9.9491 2.24022 9.84963 2.25031 9.75119C2.26041 9.65274 2.28989 9.55727 2.33705 9.47027C2.38421 9.38327 2.44813 9.30646 2.52511 9.24428C2.60209 9.18209 2.69062 9.13575 2.78559 9.10794C2.88056 9.08012 2.98009 9.07137 3.07846 9.0822C3.17683 9.09303 3.27208 9.12322 3.35873 9.17102C3.44537 9.21883 3.5217 9.28332 3.58331 9.36076C4.16898 10.0896 4.83737 10.7478 5.57503 11.3223C5.58094 11.3264 5.58628 11.3311 5.592 11.3354C7.42247 12.7595 9.68091 13.5224 12 13.5C14.3185 13.5224 16.5764 12.7598 18.4066 11.3364C18.4116 11.3326 18.4162 11.3288 18.4212 11.3251C19.1603 10.75 19.8299 10.0907 20.4166 9.36076C20.5421 9.20771 20.7231 9.11049 20.92 9.09029C21.1169 9.0701 21.3138 9.12857 21.4678 9.25296C21.6218 9.37734 21.7203 9.55756 21.742 9.75432C21.7636 9.95108 21.7066 10.1484 21.5834 10.3033C21.0547 10.9596 20.4672 11.5663 19.8282 12.1158L21.6458 15.2637Z" fill="#1A141F"/>
</svg>
