<svg viewBox="0 0 24 24" fill="none" xmlns="http://www.w3.org/2000/svg">
<path d="M21.0745 11.4357C19.0748 7.06721 16.0521 4.86877 12 4.86877C7.94578 4.86877 4.92515 7.06721 2.92546 11.4378C2.84526 11.614 2.80366 11.8063 2.80366 12.0011C2.80366 12.1959 2.84526 12.3883 2.92546 12.5644C4.92515 16.9328 7.94789 19.1313 12 19.1313C16.0542 19.1313 19.0748 16.9328 21.0745 12.5622C21.237 12.2078 21.237 11.7966 21.0745 11.4357ZM12 17.5563C8.59757 17.5563 6.1064 15.7669 4.34929 12C6.1064 8.23315 8.59757 6.44377 12 6.44377C15.4024 6.44377 17.8936 8.23315 19.6507 12C17.8957 15.7669 15.4045 17.5563 12 17.5563ZM11.9156 8.15002C9.86531 8.15002 8.20312 9.87378 8.20312 12C8.20312 14.1263 9.86531 15.85 11.9156 15.85C13.9659 15.85 15.6281 14.1263 15.6281 12C15.6281 9.87378 13.9659 8.15002 11.9156 8.15002ZM11.9156 14.45C10.6099 14.45 9.55312 13.3541 9.55312 12C9.55312 10.646 10.6099 9.55002 11.9156 9.55002C13.2213 9.55002 14.2781 10.646 14.2781 12C14.2781 13.3541 13.2213 14.45 11.9156 14.45Z" fill="#1A141F"/>
</svg>
