<?xml version="1.0" encoding="utf-8"?>
<svg xmlns="http://www.w3.org/2000/svg">
<symbol id="arrow-down" viewBox="0 0 12 12">
  <path d="M5.58906 9.7845C5.63493 9.85112 5.69631 9.90559 5.76791 9.94322C5.8395 9.98086 5.91918 10.0005 6.00006 10.0005C6.08095 10.0005 6.16062 9.98086 6.23222 9.94322C6.30381 9.90559 6.36519 9.85112 6.41106 9.7845L10.9111 3.2845C10.9631 3.20953 10.9937 3.12172 10.9994 3.0306C11.0051 2.93949 10.9857 2.84856 10.9433 2.7677C10.9009 2.68683 10.8372 2.61912 10.7591 2.57193C10.6809 2.52473 10.5914 2.49986 10.5001 2.5H1.50006C1.40898 2.50038 1.31973 2.52557 1.2419 2.57288C1.16407 2.62019 1.10061 2.68782 1.05834 2.7685C1.01608 2.84917 0.996603 2.93985 1.00201 3.03077C1.00743 3.12168 1.03752 3.20941 1.08906 3.2845L5.58906 9.7845Z"/>

</symbol>
<symbol id="arrow-left" viewBox="0 0 24 24">
  <path fill-rule="evenodd" clip-rule="evenodd" d="M13.9147 6L15 7.10097L10.1706 12L15 16.899L13.9147 18L8 12L13.9147 6Z"/>

</symbol>
<symbol id="arrow-right" viewBox="0 0 24 24">
  <path fill-rule="evenodd" clip-rule="evenodd" d="M10.0853 18L9 16.899L13.8294 12L9 7.10097L10.0853 6L16 12L10.0853 18Z"/>

</symbol>
<symbol id="arrow-top" viewBox="0 0 10 6">
  <path d="M10 5C10 5.16927 9.93815 5.31576 9.81445 5.43945C9.69075 5.56315 9.54427 5.625 9.375 5.625H0.625C0.455729 5.625 0.309245 5.56315 0.185547 5.43945C0.061849 5.31576 0 5.16927 0 5C0 4.83073 0.061849 4.68424 0.185547 4.56055L4.56055 0.185547C4.68424 0.061849 4.83073 0 5 0C5.16927 0 5.31576 0.061849 5.43945 0.185547L9.81445 4.56055C9.93815 4.68424 10 4.83073 10 5Z"/>

</symbol>
<symbol id="cart" viewBox="0 0 24 24">
  <path d="M1 1H5L7.68 14.39C7.77144 14.8504 8.02191 15.264 8.38755 15.5583C8.75318 15.8526 9.2107 16.009 9.68 16H19.4C19.8693 16.009 20.3268 15.8526 20.6925 15.5583C21.0581 15.264 21.3086 14.8504 21.4 14.39L23 6H6M10 21C10 21.5523 9.55228 22 9 22C8.44772 22 8 21.5523 8 21C8 20.4477 8.44772 20 9 20C9.55228 20 10 20.4477 10 21ZM21 21C21 21.5523 20.5523 22 20 22C19.4477 22 19 21.5523 19 21C19 20.4477 19.4477 20 20 20C20.5523 20 21 20.4477 21 21Z" stroke-width="2" stroke-linecap="round" stroke-linejoin="round"/>

</symbol>
<symbol id="chevron-down" viewBox="0 0 24 24">
  <path d="M6 9L12 15L18 9" stroke-width="2" stroke-linecap="round" stroke-linejoin="round"/>

</symbol>
<symbol id="chevron-up" viewBox="0 0 24 24">
  <path d="M18 15L12 9L6 15" stroke-width="2" stroke-linecap="round" stroke-linejoin="round"/>

</symbol>
<symbol id="cross" viewBox="0 0 16 16">
  <path d="M8.88173 7.9864L13.8557 3.0257C13.954 2.91123 14.0054 2.76398 13.9996 2.61338C13.9937 2.46278 13.9311 2.31992 13.8243 2.21335C13.7174 2.10677 13.5742 2.04434 13.4232 2.03852C13.2722 2.03271 13.1245 2.08393 13.0097 2.18197L8.03573 7.14266L3.06173 2.17598C2.94874 2.0633 2.79551 2 2.63573 2C2.47595 2 2.32271 2.0633 2.20973 2.17598C2.09674 2.28866 2.03327 2.44149 2.03327 2.60084C2.03327 2.7602 2.09674 2.91302 2.20973 3.0257L7.18973 7.9864L2.20973 12.9471C2.14692 13.0007 2.0959 13.0668 2.05989 13.141C2.02388 13.2152 2.00364 13.2961 2.00045 13.3785C1.99726 13.4609 2.01118 13.5431 2.04134 13.6199C2.07151 13.6967 2.11726 13.7664 2.17574 13.8247C2.23421 13.8831 2.30414 13.9287 2.38113 13.9588C2.45813 13.9889 2.54053 14.0027 2.62316 13.9996C2.70579 13.9964 2.78687 13.9762 2.86131 13.9403C2.93575 13.9044 3.00194 13.8535 3.05573 13.7908L8.03573 8.83014L13.0097 13.7908C13.1245 13.8889 13.2722 13.9401 13.4232 13.9343C13.5742 13.9285 13.7174 13.866 13.8243 13.7595C13.9311 13.6529 13.9937 13.51 13.9996 13.3594C14.0054 13.2088 13.954 13.0616 13.8557 12.9471L8.88173 7.9864Z"/>

</symbol>
<symbol id="eye-closed" viewBox="0 0 24 24">
<path d="M21.6458 15.2637C21.6958 15.3491 21.7284 15.4434 21.7418 15.5414C21.7552 15.6394 21.7491 15.7391 21.7238 15.8347C21.6985 15.9304 21.6546 16.02 21.5945 16.0986C21.5344 16.1772 21.4594 16.2431 21.3737 16.2925C21.2881 16.342 21.1935 16.374 21.0954 16.3868C20.9973 16.3995 20.8977 16.3927 20.8022 16.3668C20.7068 16.3409 20.6174 16.2964 20.5392 16.2358C20.4611 16.1752 20.3956 16.0997 20.3468 16.0137L18.6234 13.0288C17.6081 13.7088 16.4915 14.2239 15.3152 14.5549L15.8602 17.6453C15.8947 17.8412 15.8499 18.0428 15.7358 18.2058C15.6217 18.3687 15.4476 18.4797 15.2517 18.5142C15.2084 18.5218 15.1645 18.5256 15.1206 18.5257C14.9444 18.5254 14.774 18.4632 14.6391 18.3499C14.5042 18.2366 14.4135 18.0794 14.3828 17.906L13.8468 14.8659C12.6193 15.0452 11.3722 15.0447 10.1449 14.8645L9.60881 17.9046C9.57821 18.0781 9.48752 18.2353 9.35264 18.3486C9.21776 18.462 9.04728 18.5243 8.87109 18.5245C8.82716 18.5245 8.78331 18.5207 8.74003 18.5131C8.54413 18.4786 8.36998 18.3676 8.25588 18.2047C8.14178 18.0417 8.09707 17.8401 8.13159 17.6442L8.67666 14.5525C7.50171 14.221 6.38654 13.7058 5.37244 13.0261L3.639 16.0285C3.59043 16.1151 3.52515 16.1912 3.44695 16.2523C3.36876 16.3135 3.2792 16.3585 3.18347 16.3848C3.08774 16.4111 2.98775 16.4181 2.88929 16.4054C2.79083 16.3928 2.69586 16.3607 2.60989 16.3111C2.52392 16.2614 2.44867 16.1952 2.38848 16.1163C2.32829 16.0373 2.28438 15.9472 2.25928 15.8512C2.23419 15.7551 2.22841 15.655 2.24228 15.5567C2.25615 15.4585 2.2894 15.3639 2.34009 15.2785L4.16794 12.1126C3.53041 11.5639 2.94418 10.9583 2.4165 10.3033C2.35374 10.2268 2.30675 10.1386 2.27823 10.0439C2.24971 9.9491 2.24022 9.84963 2.25031 9.75119C2.26041 9.65274 2.28989 9.55727 2.33705 9.47027C2.38421 9.38327 2.44813 9.30646 2.52511 9.24428C2.60209 9.18209 2.69062 9.13575 2.78559 9.10794C2.88056 9.08012 2.98009 9.07137 3.07846 9.0822C3.17683 9.09303 3.27208 9.12322 3.35873 9.17102C3.44537 9.21883 3.5217 9.28332 3.58331 9.36076C4.16898 10.0896 4.83737 10.7478 5.57503 11.3223C5.58094 11.3264 5.58628 11.3311 5.592 11.3354C7.42247 12.7595 9.68091 13.5224 12 13.5C14.3185 13.5224 16.5764 12.7598 18.4066 11.3364C18.4116 11.3326 18.4162 11.3288 18.4212 11.3251C19.1603 10.75 19.8299 10.0907 20.4166 9.36076C20.5421 9.20771 20.7231 9.11049 20.92 9.09029C21.1169 9.0701 21.3138 9.12857 21.4678 9.25296C21.6218 9.37734 21.7203 9.55756 21.742 9.75432C21.7636 9.95108 21.7066 10.1484 21.5834 10.3033C21.0547 10.9596 20.4672 11.5663 19.8282 12.1158L21.6458 15.2637Z" fill="#1A141F"/>

</symbol>
<symbol id="eye" viewBox="0 0 24 24">
<path d="M21.0745 11.4357C19.0748 7.06721 16.0521 4.86877 12 4.86877C7.94578 4.86877 4.92515 7.06721 2.92546 11.4378C2.84526 11.614 2.80366 11.8063 2.80366 12.0011C2.80366 12.1959 2.84526 12.3883 2.92546 12.5644C4.92515 16.9328 7.94789 19.1313 12 19.1313C16.0542 19.1313 19.0748 16.9328 21.0745 12.5622C21.237 12.2078 21.237 11.7966 21.0745 11.4357ZM12 17.5563C8.59757 17.5563 6.1064 15.7669 4.34929 12C6.1064 8.23315 8.59757 6.44377 12 6.44377C15.4024 6.44377 17.8936 8.23315 19.6507 12C17.8957 15.7669 15.4045 17.5563 12 17.5563ZM11.9156 8.15002C9.86531 8.15002 8.20312 9.87378 8.20312 12C8.20312 14.1263 9.86531 15.85 11.9156 15.85C13.9659 15.85 15.6281 14.1263 15.6281 12C15.6281 9.87378 13.9659 8.15002 11.9156 8.15002ZM11.9156 14.45C10.6099 14.45 9.55312 13.3541 9.55312 12C9.55312 10.646 10.6099 9.55002 11.9156 9.55002C13.2213 9.55002 14.2781 10.646 14.2781 12C14.2781 13.3541 13.2213 14.45 11.9156 14.45Z" fill="#1A141F"/>

</symbol>
<symbol id="grey-arrow-left" viewBox="0 0 8 14">
  <path d="M7 13L1 6.93015L6.86175 1" stroke-width="1.5" stroke-linecap="round" stroke-linejoin="round"/>

</symbol>
<symbol id="minus" viewBox="0 0 20 20">
  <rect x="2" y="9" width="16" height="2"/>

</symbol>
<symbol id="plus" viewBox="0 0 20 20">
  <path d="M18 9H11V2H9V9H2V11H9V18H11V11H18V9Z"/>

</symbol>
<symbol id="search" viewBox="0 0 512 512">
  <path d="M344.5,298c15-23.6,23.8-51.6,23.8-81.7c0-84.1-68.1-152.3-152.1-152.3C132.1,64,64,132.2,64,216.3  c0,84.1,68.1,152.3,152.1,152.3c30.5,0,58.9-9,82.7-24.4l6.9-4.8L414.3,448l33.7-34.3L339.5,305.1L344.5,298z M301.4,131.2  c22.7,22.7,35.2,52.9,35.2,85c0,32.1-12.5,62.3-35.2,85c-22.7,22.7-52.9,35.2-85,35.2c-32.1,0-62.3-12.5-85-35.2  c-22.7-22.7-35.2-52.9-35.2-85c0-32.1,12.5-62.3,35.2-85c22.7-22.7,52.9-35.2,85-35.2C248.5,96,278.7,108.5,301.4,131.2z"/>

</symbol>
<symbol id="shopping-cart" viewBox="0 0 24 24">
  <path d="M1 1H5L7.68 14.39C7.77144 14.8504 8.02191 15.264 8.38755 15.5583C8.75318 15.8526 9.2107 16.009 9.68 16H19.4C19.8693 16.009 20.3268 15.8526 20.6925 15.5583C21.0581 15.264 21.3086 14.8504 21.4 14.39L23 6H6M10 21C10 21.5523 9.55228 22 9 22C8.44772 22 8 21.5523 8 21C8 20.4477 8.44772 20 9 20C9.55228 20 10 20.4477 10 21ZM21 21C21 21.5523 20.5523 22 20 22C19.4477 22 19 21.5523 19 21C19 20.4477 19.4477 20 20 20C20.5523 20 21 20.4477 21 21Z" stroke-width="2" stroke-linecap="round" stroke-linejoin="round"/>

</symbol>
<symbol id="trash" viewBox="0 0 24 24">
  <path d="M3 6H5M5 6H21M5 6V20C5 20.5304 5.21071 21.0391 5.58579 21.4142C5.96086 21.7893 6.46957 22 7 22H17C17.5304 22 18.0391 21.7893 18.4142 21.4142C18.7893 21.0391 19 20.5304 19 20V6H5ZM8 6V4C8 3.46957 8.21071 2.96086 8.58579 2.58579C8.96086 2.21071 9.46957 2 10 2H14C14.5304 2 15.0391 2.21071 15.4142 2.58579C15.7893 2.96086 16 3.46957 16 4V6M10 11V17M14 11V17" stroke-width="2" stroke-linecap="round" stroke-linejoin="round"/>

</symbol></svg>